#Comment line ignore any data following # character 
#Hierarchical Translation and Rotation (.htr) file 
[Header]	
#Header keywords are followed by a single value 
FileType HTR		#Single word string
DataType HTRS		#Translation followed by rotation and scale data
FileVersion 1		#integer
NumSegments 84		#integer
NumFrames 2		#integer
DataFrameRate 30		#integer, data frame rate in this file
EulerRotationOrder ZYX
CalibrationUnits mm
RotationUnits Degrees
GlobalAxisofGravity Y
BoneLengthAxis Y
ScaleFactor 1.00
[SegmentNames&Hierarchy]
#CHILD	PARENT
MASTER GLOBAL
root MASTER
chest root
L_mid_tent01 root
R_mid_tent01 root
spine01 root
Bip01_Neck chest
L_humerus chest
R_humerus chest
weapon_bone chest
Bip01_Head Bip01_Neck
eye_left_bone Bip01_Head
eye_right_bone Bip01_Head
L_forearm L_humerus
L_front_hand L_forearm
L_weapon_bone L_forearm
L_front_hand01_01 L_front_hand
L_front_hand02_01 L_front_hand
L_front_hand03_01 L_front_hand
L_front_hand01_02 L_front_hand01_01
L_front_hand02_02 L_front_hand02_01
L_front_hand03_02 L_front_hand03_01
R_forearm R_humerus
R_front_hand R_forearm
R_weapon_bone R_forearm
R_front_hand01_01 R_front_hand
R_front_hand02_01 R_front_hand
R_front_hand03_01 R_front_hand
R_front_hand01_02 R_front_hand01_01
R_front_hand02_02 R_front_hand02_01
R_front_hand03_02 R_front_hand03_01
null_rope01_connect L_mid_tent01
Rope1_Seg01 null_rope01_connect
Rope1_Seg02 Rope1_Seg01
Rope1_Seg03 Rope1_Seg02
Rope1_Seg04 Rope1_Seg03
Rope1_Seg05 Rope1_Seg04
Rope1_Seg06 Rope1_Seg05
Rope1_Seg07 Rope1_Seg06
Rope1_Seg09 Rope1_Seg07
L_mid_hand01 Rope1_Seg09
L_mid_hand02 Rope1_Seg09
L_mid_hand03 Rope1_Seg09
null_rope02_connect R_mid_tent01
Rope2_Seg01 null_rope02_connect
Rope2_Seg02 Rope2_Seg01
Rope2_Seg03 Rope2_Seg02
Rope2_Seg04 Rope2_Seg03
Rope2_Seg05 Rope2_Seg04
Rope2_Seg06 Rope2_Seg05
Rope2_Seg07 Rope2_Seg06
Rope2_Seg09 Rope2_Seg07
R_mid_hand01 Rope2_Seg09
R_mid_hand02 Rope2_Seg09
R_mid_hand03 Rope2_Seg09
spine02 spine01
spine03 spine02
pelvis spine03
null_rope03_connect pelvis
null_rope04_connect pelvis
Rope3_Seg01 null_rope03_connect
Rope3_Seg02 Rope3_Seg01
Rope3_Seg03 Rope3_Seg02
Rope3_Seg04 Rope3_Seg03
Rope3_Seg05 Rope3_Seg04
Rope3_Seg06 Rope3_Seg05
Rope3_Seg07 Rope3_Seg06
Rope3_Seg08 Rope3_Seg07
Rope3_Seg09 Rope3_Seg08
R_rear_hand01 Rope3_Seg09
R_rear_hand02 Rope3_Seg09
R_rear_hand03 Rope3_Seg09
Rope4_Seg01 null_rope04_connect
Rope4_Seg02 Rope4_Seg01
Rope4_Seg03 Rope4_Seg02
Rope4_Seg04 Rope4_Seg03
Rope4_Seg05 Rope4_Seg04
Rope4_Seg06 Rope4_Seg05
Rope4_Seg07 Rope4_Seg06
Rope4_Seg08 Rope4_Seg07
Rope4_Seg09 Rope4_Seg08
L_rear_hand01 Rope4_Seg09
L_rear_hand02 Rope4_Seg09
L_rear_hand03 Rope4_Seg09
[BasePosition]
#SegmentName Tx, Ty, Tz, Rx, Ry, Rz, BoneLength
MASTER 0.000000 0.000000 0.000000 -90.000000 0.000000 0.000000 10.000000 
root 0.000000 0.000000 0.000000 0.000000 0.000000 0.000000 10.000000 
chest 0.000000 0.000000 0.000000 0.000000 0.000000 0.000000 10.000000 
L_mid_tent01 0.000000 0.000000 0.000000 0.000000 0.000000 0.000000 10.000000 
R_mid_tent01 0.000000 0.000000 0.000000 0.000000 0.000000 0.000000 10.000000 
spine01 0.000000 0.000000 0.000000 0.000000 0.000000 0.000000 10.000000 
Bip01_Neck 0.000000 0.000000 0.000000 0.000000 0.000000 0.000000 10.000000 
L_humerus 0.000000 0.000000 0.000000 0.000000 0.000000 0.000000 10.000000 
R_humerus 0.000000 0.000000 0.000000 0.000000 0.000000 0.000000 10.000000 
weapon_bone 0.000000 0.000000 0.000000 0.000000 0.000000 0.000000 10.000000 
Bip01_Head 0.000000 0.000000 0.000000 0.000000 0.000000 0.000000 10.000000 
eye_left_bone 0.000000 0.000000 0.000000 0.000000 0.000000 0.000000 10.000000 
eye_right_bone 0.000000 0.000000 0.000000 0.000000 0.000000 0.000000 10.000000 
L_forearm 0.000000 0.000000 0.000000 0.000000 0.000000 0.000000 10.000000 
L_front_hand 0.000000 0.000000 0.000000 0.000000 0.000000 0.000000 10.000000 
L_weapon_bone 0.000000 0.000000 0.000000 0.000000 0.000000 0.000000 10.000000 
L_front_hand01_01 0.000000 0.000000 0.000000 0.000000 0.000000 0.000000 10.000000 
L_front_hand02_01 0.000000 0.000000 0.000000 0.000000 0.000000 0.000000 10.000000 
L_front_hand03_01 0.000000 0.000000 0.000000 0.000000 0.000000 0.000000 10.000000 
L_front_hand01_02 0.000000 0.000000 0.000000 0.000000 0.000000 0.000000 10.000000 
L_front_hand02_02 0.000000 0.000000 0.000000 0.000000 0.000000 0.000000 10.000000 
L_front_hand03_02 0.000000 0.000000 0.000000 0.000000 0.000000 0.000000 10.000000 
R_forearm 0.000000 0.000000 0.000000 0.000000 0.000000 0.000000 10.000000 
R_front_hand 0.000000 0.000000 0.000000 0.000000 0.000000 0.000000 10.000000 
R_weapon_bone 0.000000 0.000000 0.000000 0.000000 0.000000 0.000000 10.000000 
R_front_hand01_01 0.000000 0.000000 0.000000 0.000000 0.000000 0.000000 10.000000 
R_front_hand02_01 0.000000 0.000000 0.000000 0.000000 0.000000 0.000000 10.000000 
R_front_hand03_01 0.000000 0.000000 0.000000 0.000000 0.000000 0.000000 10.000000 
R_front_hand01_02 0.000000 0.000000 0.000000 0.000000 0.000000 0.000000 10.000000 
R_front_hand02_02 0.000000 0.000000 0.000000 0.000000 0.000000 0.000000 10.000000 
R_front_hand03_02 0.000000 0.000000 0.000000 0.000000 0.000000 0.000000 10.000000 
null_rope01_connect 0.000000 0.000000 0.000000 0.000000 0.000000 0.000000 10.000000 
Rope1_Seg01 0.000000 0.000000 0.000000 0.000000 0.000000 0.000000 10.000000 
Rope1_Seg02 0.000000 0.000000 0.000000 0.000000 0.000000 0.000000 10.000000 
Rope1_Seg03 0.000000 0.000000 0.000000 0.000000 0.000000 0.000000 10.000000 
Rope1_Seg04 0.000000 0.000000 0.000000 0.000000 0.000000 0.000000 10.000000 
Rope1_Seg05 0.000000 0.000000 0.000000 0.000000 0.000000 0.000000 10.000000 
Rope1_Seg06 0.000000 0.000000 0.000000 0.000000 0.000000 0.000000 10.000000 
Rope1_Seg07 0.000000 0.000000 0.000000 0.000000 0.000000 0.000000 10.000000 
Rope1_Seg09 0.000000 0.000000 0.000000 0.000000 0.000000 0.000000 10.000000 
L_mid_hand01 0.000000 0.000000 0.000000 0.000000 0.000000 0.000000 10.000000 
L_mid_hand02 0.000000 0.000000 0.000000 0.000000 0.000000 0.000000 10.000000 
L_mid_hand03 0.000000 0.000000 0.000000 0.000000 0.000000 0.000000 10.000000 
null_rope02_connect 0.000000 0.000000 0.000000 0.000000 0.000000 0.000000 10.000000 
Rope2_Seg01 0.000000 0.000000 0.000000 0.000000 0.000000 0.000000 10.000000 
Rope2_Seg02 0.000000 0.000000 0.000000 0.000000 0.000000 0.000000 10.000000 
Rope2_Seg03 0.000000 0.000000 0.000000 0.000000 0.000000 0.000000 10.000000 
Rope2_Seg04 0.000000 0.000000 0.000000 0.000000 0.000000 0.000000 10.000000 
Rope2_Seg05 0.000000 0.000000 0.000000 0.000000 0.000000 0.000000 10.000000 
Rope2_Seg06 0.000000 0.000000 0.000000 0.000000 0.000000 0.000000 10.000000 
Rope2_Seg07 0.000000 0.000000 0.000000 0.000000 0.000000 0.000000 10.000000 
Rope2_Seg09 0.000000 0.000000 0.000000 0.000000 0.000000 0.000000 10.000000 
R_mid_hand01 0.000000 0.000000 0.000000 0.000000 0.000000 0.000000 10.000000 
R_mid_hand02 0.000000 0.000000 0.000000 0.000000 0.000000 0.000000 10.000000 
R_mid_hand03 0.000000 0.000000 0.000000 0.000000 0.000000 0.000000 10.000000 
spine02 0.000000 0.000000 0.000000 0.000000 0.000000 0.000000 10.000000 
spine03 0.000000 0.000000 0.000000 0.000000 0.000000 0.000000 10.000000 
pelvis 0.000000 0.000000 0.000000 0.000000 0.000000 0.000000 10.000000 
null_rope03_connect 0.000000 0.000000 0.000000 0.000000 0.000000 0.000000 10.000000 
null_rope04_connect 0.000000 0.000000 0.000000 0.000000 0.000000 0.000000 10.000000 
Rope3_Seg01 0.000000 0.000000 0.000000 0.000000 0.000000 0.000000 10.000000 
Rope3_Seg02 0.000000 0.000000 0.000000 0.000000 0.000000 0.000000 10.000000 
Rope3_Seg03 0.000000 0.000000 0.000000 0.000000 0.000000 0.000000 10.000000 
Rope3_Seg04 0.000000 0.000000 0.000000 0.000000 0.000000 0.000000 10.000000 
Rope3_Seg05 0.000000 0.000000 0.000000 0.000000 0.000000 0.000000 10.000000 
Rope3_Seg06 0.000000 0.000000 0.000000 0.000000 0.000000 0.000000 10.000000 
Rope3_Seg07 0.000000 0.000000 0.000000 0.000000 0.000000 0.000000 10.000000 
Rope3_Seg08 0.000000 0.000000 0.000000 0.000000 0.000000 0.000000 10.000000 
Rope3_Seg09 0.000000 0.000000 0.000000 0.000000 0.000000 0.000000 10.000000 
R_rear_hand01 0.000000 0.000000 0.000000 0.000000 0.000000 0.000000 10.000000 
R_rear_hand02 0.000000 0.000000 0.000000 0.000000 0.000000 0.000000 10.000000 
R_rear_hand03 0.000000 0.000000 0.000000 0.000000 0.000000 0.000000 10.000000 
Rope4_Seg01 0.000000 0.000000 0.000000 0.000000 0.000000 0.000000 10.000000 
Rope4_Seg02 0.000000 0.000000 0.000000 0.000000 0.000000 0.000000 10.000000 
Rope4_Seg03 0.000000 0.000000 0.000000 0.000000 0.000000 0.000000 10.000000 
Rope4_Seg04 0.000000 0.000000 0.000000 0.000000 0.000000 0.000000 10.000000 
Rope4_Seg05 0.000000 0.000000 0.000000 0.000000 0.000000 0.000000 10.000000 
Rope4_Seg06 0.000000 0.000000 0.000000 0.000000 0.000000 0.000000 10.000000 
Rope4_Seg07 0.000000 0.000000 0.000000 0.000000 0.000000 0.000000 10.000000 
Rope4_Seg08 0.000000 0.000000 0.000000 0.000000 0.000000 0.000000 10.000000 
Rope4_Seg09 0.000000 0.000000 0.000000 0.000000 0.000000 0.000000 10.000000 
L_rear_hand01 0.000000 0.000000 0.000000 0.000000 0.000000 0.000000 10.000000 
L_rear_hand02 0.000000 0.000000 0.000000 0.000000 0.000000 0.000000 10.000000 
L_rear_hand03 0.000000 0.000000 0.000000 0.000000 0.000000 0.000000 10.000000 
#Beginning of Data. Separated by tabs
#Fr	Tx	Ty	Tz	Rx	Ry	Rz	SF
[MASTER]
4 0.000000 0.000000 0.000000 0.001660 0.001660 0.001660 0.000000
5 0.000000 0.000000 0.000000 0.001660 0.001660 0.001660 0.000000
[root]
4 -15.229284 -70.515549 1485.696045 -91.629730 -27.676092 -90.148125 1487.446533
5 -15.077700 -71.301796 1477.912720 -91.629707 -27.676079 -90.148117 1479.708374
[chest]
4 -84.512650 -34.090519 0.000000 -1.888050 0.943089 -178.206696 91.129311
5 -84.512650 -34.090519 0.000000 -1.888050 0.943089 -178.206696 91.129311
[L_mid_tent01]
4 27.299507 22.177576 -249.918274 5.057198 33.070232 83.807961 252.381165
5 27.299513 22.177578 -249.918289 5.410255 32.008568 84.591255 252.381180
[R_mid_tent01]
4 23.228794 24.509907 226.238495 159.414474 -44.719597 88.948288 228.744751
5 23.228794 24.509907 226.238495 159.097443 -43.936031 89.275757 228.744751
[spine01]
4 -0.361383 -0.195265 0.000000 0.001845 0.001451 13.654368 0.410763
5 -0.361383 -0.195265 0.000000 0.001845 0.001451 13.654368 0.410763
[Bip01_Neck]
4 165.484543 71.581718 0.000119 176.643677 -1.657967 43.431915 180.302734
5 165.484543 71.581718 0.000119 176.643677 -1.657967 43.431915 180.302734
[L_humerus]
4 -13.983130 -135.272980 -120.471481 156.317398 70.210068 -112.010231 181.680161
5 -13.983130 -135.272980 -120.471481 156.317383 70.210045 -112.010246 181.680161
[R_humerus]
4 -13.983309 -135.273102 125.287651 -172.382263 -66.903831 -92.553993 184.909012
5 -13.983309 -135.273102 125.287651 -172.382263 -66.903839 -92.553993 184.909012
[weapon_bone]
4 235.964890 -300.705902 0.000000 0.000000 -89.951546 -128.212341 382.234833
5 235.964890 -300.705902 0.000000 0.000000 -89.951546 -128.212341 382.234833
[Bip01_Head]
4 213.438690 185.731323 11.571892 4.968390 5.247288 -43.853752 283.171509
5 213.436783 185.736603 11.503539 4.987259 10.061257 -43.762226 283.170746
[eye_left_bone]
4 -24.626970 125.451866 -64.772606 0.000000 -90.000000 -99.840431 143.318359
5 -24.626970 125.451866 -64.772606 0.000000 -90.000000 -99.840431 143.318359
[eye_right_bone]
4 -24.626970 125.451866 64.327362 0.000000 -89.980217 80.156380 143.117676
5 -24.626970 125.451866 64.327362 0.000000 -89.965736 80.156380 143.117676
[L_forearm]
4 322.776093 0.000000 -0.000119 0.000119 -0.002344 -95.807457 322.776093
5 322.776093 0.000000 -0.000119 0.000119 -0.002344 -95.807457 322.776093
[L_front_hand]
4 241.149185 -0.042021 -3.300071 -178.667953 -1.835447 -27.422350 241.171753
5 241.149185 -0.042021 -3.300071 -178.667953 -1.835447 -27.422344 241.171753
[L_weapon_bone]
4 156.183838 0.000000 0.000000 0.000014 0.000007 0.000001 156.183838
5 156.183838 0.000000 0.000000 0.000014 0.000007 0.000001 156.183838
[L_front_hand01_01]
4 86.095154 20.947098 -0.655860 -0.365371 -0.478091 75.092094 88.609184
5 86.095154 20.947098 -0.655860 -0.358124 -0.483585 74.301987 88.609184
[L_front_hand02_01]
4 86.935165 -11.437475 24.513514 153.946487 -59.758568 -60.843468 91.046425
5 86.935165 -11.437475 24.513514 152.741364 -59.405788 -59.444736 91.046425
[L_front_hand03_01]
4 86.637497 -14.123976 -20.424902 -153.504349 57.989803 -62.217342 90.126129
5 86.637497 -14.123976 -20.424902 -152.381119 57.628048 -60.890831 90.126129
[L_front_hand01_02]
4 71.020905 -0.000179 0.000030 0.000320 -0.002325 -105.648979 71.020905
5 71.020905 -0.000179 0.000030 0.000319 -0.002325 -105.611748 71.020905
[L_front_hand02_02]
4 71.020927 -0.000119 0.000060 0.000320 -0.002325 -105.648979 71.020927
5 71.020927 -0.000119 0.000060 0.000319 -0.002325 -105.611748 71.020927
[L_front_hand03_02]
4 71.020905 -0.000060 0.000060 0.000320 -0.002325 -105.648979 71.020905
5 71.020905 -0.000060 0.000060 0.000319 -0.002325 -105.611748 71.020905
[R_forearm]
4 322.776428 -0.000060 0.000030 0.209504 0.012586 -94.339058 322.776428
5 322.776428 -0.000060 0.000030 0.209504 0.012586 -94.339050 322.776428
[R_front_hand]
4 238.847015 -0.006795 2.210259 -2.635298 -10.645461 -26.312506 238.857239
5 238.847015 -0.006795 2.210259 -2.635298 -10.645461 -26.312506 238.857239
[R_weapon_bone]
4 155.664093 0.002503 -0.000030 0.003487 0.001180 -90.988930 155.664078
5 155.664093 0.002503 -0.000030 0.003487 0.001180 -90.988930 155.664078
[R_front_hand01_01]
4 87.624611 14.231146 22.918642 -154.238968 -59.839840 61.284889 91.683487
5 87.624611 14.231146 22.918642 -153.171539 -59.529896 60.052429 91.683487
[R_front_hand02_01]
4 89.356956 14.367283 -19.491137 154.231567 58.196690 63.311184 92.579636
5 89.356956 14.367283 -19.491137 153.232147 57.885738 62.134083 92.579636
[R_front_hand03_01]
4 87.286232 -22.307278 -0.143439 0.161230 -0.423521 -75.517479 90.091743
5 87.286232 -22.307278 -0.143439 0.154710 -0.427505 -74.818459 90.091743
[R_front_hand01_02]
4 71.020905 0.000060 0.000119 0.002323 -0.000334 106.381714 71.020905
5 71.020905 0.000060 0.000119 0.002323 -0.000334 106.381714 71.020905
[R_front_hand02_02]
4 71.020844 -0.000030 -0.000119 0.002323 -0.000334 106.381714 71.020836
5 71.020844 -0.000030 -0.000119 0.002323 -0.000334 106.381714 71.020836
[R_front_hand03_02]
4 71.020905 0.000000 0.000030 0.002323 -0.000334 106.381714 71.020905
5 71.020905 0.000000 0.000030 0.002323 -0.000334 106.381714 71.020905
[null_rope01_connect]
4 328.732483 0.000000 -0.000238 -137.383240 -54.916393 172.851410 328.732483
5 328.732483 0.000000 -0.000238 -137.269958 -55.911827 172.004532 328.732483
[Rope1_Seg01]
4 -0.000038 -0.000114 0.000097 117.536522 38.304028 147.985977 0.000155
5 -0.000038 -0.000114 0.000098 118.855316 36.605518 151.189240 0.000155
[Rope1_Seg02]
4 139.999863 -0.000179 0.000000 0.555736 -11.792964 3.544632 139.999863
5 139.999863 -0.000179 0.000000 0.791863 -12.073477 3.489392 139.999863
[Rope1_Seg03]
4 139.999924 0.000060 -0.000060 -2.502054 -21.573423 5.702395 139.999924
5 139.999924 0.000060 -0.000060 -2.563596 -23.099194 6.263847 139.999924
[Rope1_Seg04]
4 139.999924 -0.000060 -0.000119 -13.108551 -30.928619 6.157334 139.999924
5 139.999924 -0.000060 -0.000119 -15.165023 -33.747898 6.809171 139.999924
[Rope1_Seg05]
4 139.999832 0.000119 -0.000060 3.251840 -6.303977 12.324449 139.999832
5 139.999832 0.000119 -0.000060 2.678180 -6.008147 10.975113 139.999832
[Rope1_Seg06]
4 139.999954 0.000119 -0.000060 7.951312 -0.053157 7.926567 139.999954
5 139.999954 0.000119 -0.000060 9.160527 0.952660 7.983290 139.999954
[Rope1_Seg07]
4 139.999985 0.000060 0.000000 2.856185 -1.105340 3.700190 139.999985
5 139.999985 0.000060 0.000000 3.007647 -0.875510 3.620675 139.999985
[Rope1_Seg09]
4 121.602913 0.000119 -0.000089 -89.793175 -1.359789 0.847147 121.602913
5 121.602913 0.000119 -0.000089 -89.793175 -1.359789 0.847147 121.602913
[L_mid_hand01]
4 103.859421 1.038730 8.195221 119.391953 -59.659550 -26.459229 104.187431
5 103.859421 1.038730 8.195221 115.408714 -54.701881 -21.722248 104.187431
[L_mid_hand02]
4 105.572853 -4.139662 -10.864139 -160.502609 40.861904 -60.979630 106.211075
5 105.572853 -4.139662 -10.864139 -156.174301 38.799179 -54.227295 106.211075
[L_mid_hand03]
4 104.641464 17.579376 -3.913581 -8.971709 16.553080 64.913109 106.179977
5 104.641464 17.579376 -3.913581 -10.556284 15.605946 59.190216 106.179977
[null_rope02_connect]
4 328.732849 0.000179 -0.000119 -122.523598 43.240910 20.523861 328.732849
5 328.732849 0.000179 -0.000119 -122.089714 43.816433 21.318752 328.732849
[Rope2_Seg01]
4 -0.000072 0.000134 0.000153 -59.097954 37.469803 32.396252 0.000215
5 -0.000071 0.000134 0.000153 -59.202885 35.885784 30.985359 0.000215
[Rope2_Seg02]
4 139.999741 -0.000060 -0.000119 -0.847038 -8.061036 5.279057 139.999756
5 139.999741 -0.000060 -0.000119 -0.966999 -7.524073 5.370649 139.999756
[Rope2_Seg03]
4 140.000107 0.000030 0.000000 -1.102497 -11.756930 8.096826 140.000107
5 140.000107 0.000030 0.000000 -1.254565 -11.420828 8.510140 140.000107
[Rope2_Seg04]
4 139.999802 0.000000 -0.000060 -1.285498 -18.437099 13.094934 139.999802
5 139.999802 0.000000 -0.000060 -1.283354 -17.840794 14.221349 139.999802
[Rope2_Seg05]
4 139.999985 -0.000060 0.000119 -2.044863 -21.856945 10.414411 139.999985
5 139.999985 -0.000060 0.000119 -2.117005 -23.047119 11.425116 139.999985
[Rope2_Seg06]
4 139.999893 -0.000030 -0.000119 -0.520156 -7.514658 3.188489 139.999893
5 139.999893 -0.000030 -0.000119 -0.596062 -7.923705 3.330286 139.999893
[Rope2_Seg07]
4 139.999893 0.000060 -0.000060 -0.036500 -3.623990 1.675352 139.999893
5 139.999893 0.000060 -0.000060 0.038469 -3.709285 1.767021 139.999893
[Rope2_Seg09]
4 121.338966 0.000089 -0.000060 33.793236 -1.359788 -0.847141 121.338966
5 121.338966 0.000089 -0.000060 33.793236 -1.359788 -0.847141 121.338966
[R_mid_hand01]
4 104.680779 11.144459 -10.335981 -20.399712 43.830379 64.493820 105.778534
5 104.680779 11.144459 -10.335981 -22.984858 42.734222 60.718655 105.778534
[R_mid_hand02]
4 104.070427 2.443552 8.231699 55.242668 -64.206009 32.532043 104.424065
5 104.070427 2.443552 8.231699 58.419544 -61.729733 28.969135 104.424065
[R_mid_hand03]
4 106.028137 -11.221827 -5.996406 -175.861618 15.275426 -71.940247 106.788818
5 106.028137 -11.221827 -5.996406 -175.069138 15.041782 -68.893341 106.788818
[spine02]
4 129.756927 0.001550 0.000119 -1.023899 -3.926965 6.770993 129.756927
5 129.756927 0.001550 0.000119 -1.023900 -3.926965 6.770993 129.756927
[spine03]
4 78.613846 0.087372 -4.898873 1.040681 4.146420 4.212375 78.766380
5 78.613846 0.087372 -4.898873 1.040680 4.146419 4.212375 78.766380
[pelvis]
4 169.435242 0.051022 0.000000 0.019518 -0.190233 -10.721436 169.435257
5 169.435242 0.051022 0.000000 0.019518 -0.190233 -10.721436 169.435257
[null_rope03_connect]
4 -1.257226 -2.466202 137.391083 -148.996384 -87.995338 -107.160736 137.418976
5 -1.257226 -2.466202 137.391083 -148.996384 -87.995132 -107.160492 137.418976
[null_rope04_connect]
4 -1.259640 -2.480268 -137.844437 -148.996384 -87.995338 -107.160736 137.872513
5 -1.259640 -2.480268 -137.844437 -148.996384 -87.995132 -107.160492 137.872513
[Rope3_Seg01]
4 0.000000 0.000000 0.000000 -142.730316 -38.947639 -63.295338 0.000000
5 0.000000 0.000000 0.000000 -143.512115 -39.017178 -62.048801 0.000000
[Rope3_Seg02]
4 139.999924 -0.000119 0.000060 -17.381155 6.629225 -30.969591 139.999924
5 139.999924 -0.000119 0.000060 -17.399853 6.995963 -29.929688 139.999924
[Rope3_Seg03]
4 139.999924 -0.000119 0.000119 -61.791935 25.396723 -48.859940 139.999924
5 139.999924 -0.000119 0.000119 -61.346607 26.711931 -48.656120 139.999924
[Rope3_Seg04]
4 139.999924 0.000119 0.000000 -21.627285 29.985785 -10.317495 139.999924
5 139.999924 0.000119 0.000000 -21.186953 30.176392 -10.706714 139.999924
[Rope3_Seg05]
4 139.999924 -0.000238 0.000060 -8.457994 27.702442 -2.771676 139.999924
5 139.999924 -0.000238 0.000060 -8.723817 27.711718 -4.023535 139.999924
[Rope3_Seg06]
4 139.999893 -0.000119 -0.000060 -0.569019 10.093344 0.790510 139.999893
5 139.999893 -0.000119 -0.000060 -0.636989 10.166037 0.411747 139.999893
[Rope3_Seg07]
4 139.999771 0.000060 -0.000119 0.341480 5.090981 0.516851 139.999771
5 139.999771 0.000060 -0.000119 0.313971 5.106402 0.342403 139.999771
[Rope3_Seg08]
4 139.999985 -0.000060 0.000000 0.535306 2.799942 0.276946 139.999985
5 139.999985 -0.000060 0.000000 0.520391 2.800444 0.172692 139.999985
[Rope3_Seg09]
4 90.185997 -0.000179 -0.000060 89.793228 -1.359877 -0.847183 90.185997
5 90.185997 -0.000179 -0.000060 89.793228 -1.359877 -0.847183 90.185997
[R_rear_hand01]
4 103.366196 -6.073594 -10.757982 -175.114853 24.208797 -67.632149 104.101845
5 103.366196 -6.073594 -10.757982 -173.471771 23.840069 -63.595013 104.101845
[R_rear_hand02]
4 100.509819 12.039542 -7.992327 -16.923939 35.395069 65.303368 101.543350
5 100.509819 12.039542 -7.992327 -19.370905 34.238888 61.013897 101.543350
[R_rear_hand03]
4 101.539970 5.215704 5.435467 75.730560 -66.314209 16.974052 101.819031
5 101.539970 5.215704 5.435467 77.523743 -62.710114 14.990737 101.819031
[Rope4_Seg01]
4 -0.000018 -0.000069 -0.000153 53.417496 -26.126085 -109.841263 0.000168
5 -0.000018 -0.000066 -0.000153 53.152714 -25.468416 -109.391869 0.000167
[Rope4_Seg02]
4 139.999985 0.000060 0.000119 11.840770 -37.886227 9.659222 139.999985
5 139.999985 0.000060 0.000119 12.223526 -39.390041 10.668964 139.999985
[Rope4_Seg03]
4 139.999924 0.000000 -0.000238 46.762718 -44.354733 33.025509 139.999924
5 139.999924 0.000000 -0.000238 45.600254 -43.034660 33.678005 139.999924
[Rope4_Seg04]
4 139.999985 0.000000 0.000119 19.284950 -1.823127 24.473845 139.999985
5 139.999985 0.000000 0.000119 18.591661 -1.889547 23.849119 139.999985
[Rope4_Seg05]
4 139.999802 -0.000060 -0.000119 13.352591 6.809506 32.487640 139.999802
5 139.999802 -0.000060 -0.000119 13.424660 6.236169 32.650898 139.999802
[Rope4_Seg06]
4 139.999924 0.000000 0.000060 2.233404 6.670323 15.138844 139.999924
5 139.999924 0.000000 0.000060 2.325432 6.558586 15.506228 139.999924
[Rope4_Seg07]
4 139.999802 0.000000 0.000000 0.117907 2.992129 6.152327 139.999802
5 139.999802 0.000000 0.000000 0.124970 2.962065 6.296124 139.999802
[Rope4_Seg08]
4 139.999924 0.000000 0.000119 -1.665570 1.585285 3.243870 139.999924
5 139.999924 0.000000 0.000119 -1.665387 1.559101 3.313522 139.999924
[Rope4_Seg09]
4 90.185791 0.000060 0.000060 -135.617828 2.228885 0.850567 90.185791
5 90.185791 0.000060 0.000060 -135.617828 2.228885 0.850567 90.185791
[L_rear_hand01]
4 101.696655 -8.392275 -7.654577 -23.837845 -31.499460 127.199913 102.329041
5 101.696655 -8.392275 -7.654577 -28.015862 -27.942142 135.607529 102.329041
[L_rear_hand02]
4 102.726799 -1.568258 5.773216 79.944244 55.427822 167.828537 102.900848
5 102.726799 -1.568258 5.773216 81.577332 47.415264 169.913025 102.900848
[L_rear_hand03]
4 104.552910 9.721220 -10.420293 -170.300720 -22.790039 -124.406273 105.519653
5 104.552910 9.721220 -10.420293 -167.078079 -21.194330 -132.993347 105.519653
